<mxfile host="app.diagrams.net" agent="Mozilla/5.0 (Macintosh; Intel Mac OS X 10_15_7) AppleWebKit/537.36 (KHTML, like Gecko) Chrome/135.0.0.0 Safari/537.36 OPR/120.0.0.0" version="28.0.4">
  <diagram name="Page-1" id="ZxUleN1-nAmhXq735BS5">
    <mxGraphModel dx="934" dy="675" grid="1" gridSize="10" guides="1" tooltips="1" connect="1" arrows="1" fold="1" page="1" pageScale="1" pageWidth="827" pageHeight="1169" math="0" shadow="0">
      <root>
        <mxCell id="0" />
        <mxCell id="1" parent="0" />
        <mxCell id="whfug1SgjLcIndZx-ml1-1" value="Utilisateur&lt;div&gt;&lt;br&gt;&lt;/div&gt;" style="shape=umlActor;verticalLabelPosition=bottom;verticalAlign=top;html=1;" vertex="1" parent="1">
          <mxGeometry x="60" y="120" width="30" height="60" as="geometry" />
        </mxCell>
        <mxCell id="whfug1SgjLcIndZx-ml1-5" value="Administrateur&lt;div&gt;&lt;br&gt;&lt;/div&gt;" style="shape=umlActor;verticalLabelPosition=bottom;verticalAlign=top;html=1;" vertex="1" parent="1">
          <mxGeometry x="60" y="340" width="30" height="60" as="geometry" />
        </mxCell>
        <mxCell id="whfug1SgjLcIndZx-ml1-10" value="" style="swimlane;startSize=0;" vertex="1" parent="1">
          <mxGeometry x="160" y="30" width="480" height="600" as="geometry" />
        </mxCell>
        <mxCell id="whfug1SgjLcIndZx-ml1-11" value="Accéder aux logs" style="ellipse;whiteSpace=wrap;html=1;" vertex="1" parent="whfug1SgjLcIndZx-ml1-10">
          <mxGeometry x="100" y="10" width="120" height="80" as="geometry" />
        </mxCell>
        <mxCell id="whfug1SgjLcIndZx-ml1-12" value="LogsCenter" style="text;html=1;align=center;verticalAlign=middle;whiteSpace=wrap;rounded=0;" vertex="1" parent="whfug1SgjLcIndZx-ml1-10">
          <mxGeometry x="410" width="60" height="30" as="geometry" />
        </mxCell>
        <mxCell id="whfug1SgjLcIndZx-ml1-14" value="Accéder à son compte" style="ellipse;whiteSpace=wrap;html=1;" vertex="1" parent="whfug1SgjLcIndZx-ml1-10">
          <mxGeometry x="100" y="100" width="120" height="80" as="geometry" />
        </mxCell>
        <mxCell id="whfug1SgjLcIndZx-ml1-16" value="Créer des comptes" style="ellipse;whiteSpace=wrap;html=1;" vertex="1" parent="whfug1SgjLcIndZx-ml1-10">
          <mxGeometry x="90" y="330" width="120" height="80" as="geometry" />
        </mxCell>
        <mxCell id="whfug1SgjLcIndZx-ml1-13" value="" style="endArrow=classic;html=1;rounded=0;exitX=0.5;exitY=0.5;exitDx=0;exitDy=0;exitPerimeter=0;" edge="1" parent="1" source="whfug1SgjLcIndZx-ml1-1" target="whfug1SgjLcIndZx-ml1-11">
          <mxGeometry width="50" height="50" relative="1" as="geometry">
            <mxPoint x="340" y="280" as="sourcePoint" />
            <mxPoint x="390" y="230" as="targetPoint" />
          </mxGeometry>
        </mxCell>
        <mxCell id="whfug1SgjLcIndZx-ml1-15" value="" style="endArrow=classic;html=1;rounded=0;exitX=0.567;exitY=0.683;exitDx=0;exitDy=0;exitPerimeter=0;entryX=0;entryY=0.5;entryDx=0;entryDy=0;" edge="1" parent="1" source="whfug1SgjLcIndZx-ml1-1" target="whfug1SgjLcIndZx-ml1-14">
          <mxGeometry width="50" height="50" relative="1" as="geometry">
            <mxPoint x="340" y="280" as="sourcePoint" />
            <mxPoint x="390" y="230" as="targetPoint" />
          </mxGeometry>
        </mxCell>
        <mxCell id="whfug1SgjLcIndZx-ml1-17" value="" style="endArrow=classic;html=1;rounded=0;exitX=0.5;exitY=0.5;exitDx=0;exitDy=0;exitPerimeter=0;" edge="1" parent="1" source="whfug1SgjLcIndZx-ml1-5" target="whfug1SgjLcIndZx-ml1-16">
          <mxGeometry width="50" height="50" relative="1" as="geometry">
            <mxPoint x="340" y="280" as="sourcePoint" />
            <mxPoint x="390" y="230" as="targetPoint" />
          </mxGeometry>
        </mxCell>
      </root>
    </mxGraphModel>
  </diagram>
</mxfile>
